<?xml version="1.0" encoding="UTF-8"?>
<!DOCTYPE svg PUBLIC "-//W3C//DTD SVG 1.1//EN" "http://www.w3.org/Graphics/SVG/1.1/DTD/svg11.dtd">
<!-- Creator: CorelDRAW -->
<svg xmlns="http://www.w3.org/2000/svg" xml:space="preserve" width="8.5in" height="11in" style="shape-rendering:geometricPrecision; text-rendering:geometricPrecision; image-rendering:optimizeQuality; fill-rule:evenodd; clip-rule:evenodd"
viewBox="0 0 8.5 11">
 <defs>
  <style type="text/css">
   <![CDATA[
    .fil0 {fill:#D5D4D4}
    .fil2 {fill:#00A1E9}
    .fil13 {fill:#16AE67}
    .fil3 {fill:#227FC4}
    .fil14 {fill:#663333}
    .fil15 {fill:#7B5151}
    .fil4 {fill:#90C31F}
    .fil11 {fill:#A42E8C}
    .fil7 {fill:#BBBB00}
    .fil10 {fill:#C3D600}
    .fil8 {fill:#E60013}
    .fil12 {fill:#EA5421}
    .fil5 {fill:#F39800}
    .fil6 {fill:yellow}
    .fil9 {fill:white}
    .fil1 {fill:#F7A30A}
   ]]>
  </style>
 </defs>
 <g id="Layer_x0020_1">
  <metadata id="CorelCorpID_0Corel-Layer"/>
  <g id="_193576424">
   <path id="_193574792" class="fil0" d="M3.38082 2.80993l0.107925 -1.1811e-005 0.182177 7.87402e-006 0.0247205 0.00394094 0.280791 0 0 -0.00394094 0.310362 0 0 0.00590551 0.295146 0 0 -0.887421 -0.30598 0 0 0.235669 -0.299528 -0.00179134 0 -0.00634252 -0.595614 0.00648819 0 -0.00648819 -0.554654 0.00604331 0.00302756 -0.00363386 -0.0340591 0 0 -0.0528504 -0.0440512 0.0528504 -0.253827 0 0 0.00954331 -0.00171654 -0.000992126 -0.32839 -0.0094252 0 0.00478346 -0.290854 0 0 0.306587 -0.0304252 0.0342953 0 -0.340626 -0.298087 -0.00231496 0 -0.237673 -0.372882 0 -0.00955118 0.266862 0.0943661 0 0.00173228 0.189366 0.00137008 0.148276 -0.149776 0.00151181 0 -0.220886 -0.281626 0 0 0.509567 0.716366 0 0 -0.00918898 0.633083 0 0 0.168941 0.614268 0 0 -0.167055 0.280177 0 0.0247244 0.00394094 0.280783 0 0 -0.00393701zm0.234299 -0.136976l0 0zm0 0l-0.234299 -0.217039 -0.0127402 -0.0117992 -0.00392126 -0.00363386"/>
  </g>
  <g id="_190929616">
   <polygon id="_193576640" class="fil1" points="3.48874,2.77991 3.6733,2.77992 3.69802,2.7552 3.69802,2.78386 3.94643,2.78386 3.94643,2.22102 "/>
   <polygon id="_193576904" class="fil2" points="1.51778,2.51465 1.51778,2.78722 0.861417,2.78722 0.861417,2.33766 1.08304,2.33766 1.08304,2.55885 1.29309,2.55673 1.29145,2.37848 "/>
   <polygon id="_193576664" class="fil3" points="1.29145,2.37848 1.28944,2.15939 1.19644,2.15939 1.20385,1.95253 1.51778,1.95253 1.51778,2.51465 "/>
   <polygon id="_193576688" class="fil4" points="2.16177,2.19226 2.16177,2.77804 1.6421,2.77804 "/>
   <polygon id="_193577024" class="fil5" points="2.21087,2.85335 2.21087,2.94698 2.76513,2.94698 2.76513,2.18835 "/>
   <polygon id="_193577000" class="fil6" points="3.35082,2.41042 3.35082,2.18627 2.79855,2.19228 2.79855,2.28641 "/>
   <polygon id="_193576472" class="fil7" points="2.79855,2.28641 2.79855,2.41048 3.01674,2.41048 3.01674,2.37875 3.11369,2.37875 3.11369,2.40468 3.04419,2.40468 3.04419,2.43622 2.80247,2.43622 2.80247,2.77992 3.07769,2.77992 3.10241,2.7552 3.10241,2.78386 3.35082,2.78386 3.35082,2.41042 "/>
   <polygon id="_193576808" class="fil8" points="3.94643,2.22102 3.94643,2.18627 3.39416,2.19228 3.39416,2.41048 3.61235,2.41048 3.61235,2.37875 3.7093,2.37875 3.7093,2.40468 3.6398,2.40468 3.6398,2.43622 3.39808,2.43622 3.39808,2.77992 3.48874,2.77991 "/>
   <polygon id="_60933888" class="fil9" points="3.00884,2.54015 3.00884,2.57754 3.07959,2.57754 3.11898,2.53815 "/>
   <polygon id="_192162632" class="fil10" points="4.10727,2.77992 3.97579,2.77992 3.97579,2.19228 4.30596,2.19426 4.30596,1.95841 4.55194,1.95841 4.55194,2.16199 "/>
   <polygon id="_191564168" class="fil11" points="4.55194,2.16199 4.55194,2.78583 4.3168,2.78583 4.3168,2.74158 4.27846,2.77992 4.10727,2.77992 "/>
   <polygon id="_191564672" class="fil9" points="4.21568,2.4164 4.2137,2.55171 4.27296,2.5527 4.30358,2.51912 4.30259,2.41245 "/>
   <polygon id="_191572136" class="fil12" points="2.76513,2.18835 2.52726,2.18835 2.52726,2.21986 2.4871,2.19667 2.19715,2.18835 2.19715,2.70525 2.49002,2.70525 2.50675,2.68852 2.50675,2.75051 2.42904,2.75051 2.42904,2.72482 2.21087,2.72482 2.21087,2.85335 "/>
   <path id="_191571992" class="fil9" d="M2.4153 2.41633l0 0.0707835 0.0786142 0c0.0262087,-0.0249488 0.0261969,-0.0472795 0,-0.0669724l-0.0786142 -0.00381102z"/>
   <polygon id="_191571464" class="fil13" points="1.6421,2.77804 1.5702,2.77804 1.56234,2.19031 1.81587,2.19228 1.81587,2.56571 1.9063,2.56571 1.9063,2.19226 2.16177,2.19226 "/>
   <polygon id="_190929784" class="fil9" points="3.59194,2.56144 3.59274,2.59021 3.65987,2.58861 3.67984,2.56064 "/>
  </g>
  <g id="_190927120">
   <path id="_193578320" class="fil0" d="M6.58184 2.57649l-0.000275591 -0.000610236 0.00522835 0.0012126 -0.00495276 -0.000602362zm-0.261693 -0.0613189l0.00283858 0.279949 0.573177 0 0 -0.372827 -0.0025 -0.00042126 4.33071e-005 -0.00399213 0.0959213 0 0 0.43037 0.512598 -0.0504173 -0.0341378 -0.274177 -0.186748 0.0264449 -0.00183858 -0.134661 0.188831 0 0 -0.263902 -0.186701 0 0 -0.16752 -0.233902 -0.00455906 -0.0557992 -0.00108661 0 0.17074 -0.0994016 0 0 0.0194646 -0.576858 0 -0.00270866 0.344925 0.00257874 0.000598425 -0.0168504 0 -0.00057874 -0.00216142 -0.000133858 -0.127827 -0.000208661 -0.217626 -0.572598 0.00212598 0 -0.233807 -0.714004 -0.00234646 0 0.860177 0.282457 0 0 -0.289606 0.322445 0 0 -0.24685 -0.329768 0 0 -0.0670984 0.427953 0 0 0.606 0.604906 0 0 -0.280138 0.000988189 0.000228346z"/>
  </g>
  <g id="_192030776">
   <polygon id="_190927648" class="fil5" points="6.57539,2.18858 6.33552,2.18858 6.33309,2.49765 6.65796,2.57309 6.64826,2.60472 6.56826,2.59499 6.55614,2.56822 6.34022,2.52255 6.34279,2.77512 6.87617,2.77512 6.87617,2.48226 "/>
   <polygon id="_190927096" class="fil3" points="5.59607,2.27618 5.2663,2.27618 5.2663,2.16908 5.70517,2.16908 5.70517,1.95474 5.03117,1.95253 5.03117,2.55174 "/>
   <polygon id="_190927504" class="fil2" points="5.03117,2.55174 5.03117,2.77264 5.27363,2.77264 5.27363,2.48303 5.59607,2.48303 5.59607,2.27618 "/>
   <polygon id="_192028688" class="fil13" points="6.27798,2.38413 6.27779,2.18656 5.73426,2.18858 5.73426,2.31779 "/>
   <polygon id="_192028880" class="fil4" points="5.73426,2.31779 5.73426,2.77508 6.29916,2.77508 6.29916,2.5341 6.08574,2.5341 6.08574,2.58531 5.95964,2.58531 5.94938,2.54701 6.05428,2.54701 6.05428,2.51459 6.27812,2.51459 6.27798,2.38413 "/>
   <polygon id="_192028136" class="fil14" points="7.04734,1.99946 7.01193,1.99877 7.01193,2.16911 6.91253,2.16911 6.91253,2.39788 7.00963,2.39788 7.00963,2.82619 7.47985,2.77994 7.45076,2.54631 7.26165,2.57309 7.25923,2.39544 7.35461,2.39544 "/>
   <polygon id="_192028352" class="fil15" points="7.35461,2.39544 7.44833,2.39544 7.44833,2.17154 7.26163,2.17154 7.26163,2.00363 7.04734,1.99946 "/>
   <rect id="_192027248" class="fil9" x="5.95087" y="2.36464" width="0.119897" height="0.0265373"/>
   <polygon id="_192023576" class="fil12" points="6.87617,2.48226 6.87617,2.43922 6.57069,2.38814 6.56584,2.3565 6.64584,2.36623 6.64244,2.3866 6.87374,2.4149 6.87617,2.18858 6.57539,2.18858 "/>
  </g>
 </g>
</svg>
